<?xml version="1.0" standalone="no"?>
<!DOCTYPE svg PUBLIC "-//W3C//DTD SVG 20010904//EN"
 "http://www.w3.org/TR/2001/REC-SVG-20010904/DTD/svg10.dtd">
<svg version="1.0" xmlns="http://www.w3.org/2000/svg"
 width="700.000000pt" height="700.000000pt" viewBox="0 0 700.000000 700.000000"
 preserveAspectRatio="xMidYMid meet">
<metadata>
Created by potrace 1.14, written by Peter Selinger 2001-2017
</metadata>
<g transform="translate(0.000000,700.000000) scale(0.100000,-0.100000)"
fill="#000000" stroke="none">
<path d="M3158 5930 c-121 -80 -253 -232 -344 -395 -9 -17 -22 -20 -96 -20
l-85 -1 -51 76 c-110 164 -224 276 -327 321 -87 39 -195 13 -249 -59 -13 -17
-21 -46 -23 -86 -5 -109 -4 -230 2 -271 8 -53 42 -157 59 -180 10 -14 11 -28
4 -54 -25 -88 -127 -252 -223 -356 -25 -27 -78 -103 -116 -168 -94 -158 -323
-559 -384 -672 -26 -49 -73 -135 -103 -190 -184 -336 -359 -725 -393 -874 -10
-43 -13 -188 -5 -256 12 -96 17 -126 26 -149 5 -14 7 -26 5 -26 -8 0 45 -133
70 -175 56 -95 138 -166 240 -206 54 -21 76 -23 229 -24 l170 -1 8 -29 c9 -37
63 -98 100 -113 15 -6 66 -10 115 -9 72 2 98 8 145 30 87 43 167 123 280 282
80 112 222 248 352 337 50 34 96 66 101 70 6 5 62 46 125 92 246 180 416 323
603 509 55 53 100 97 102 97 6 0 -5 -99 -25 -225 -39 -247 -114 -442 -246
-640 -30 -44 -64 -91 -76 -105 -13 -14 -39 -45 -59 -70 -20 -25 -138 -145
-261 -268 -283 -282 -369 -388 -460 -562 -40 -77 -93 -214 -102 -265 -2 -11
-9 -38 -14 -60 -10 -37 -20 -104 -28 -180 -8 -76 -5 -193 5 -217 6 -16 25 -37
43 -48 33 -20 52 -20 1856 -20 l1822 0 38 34 37 34 0 469 c0 401 -6 644 -20
793 -2 19 -6 71 -9 115 -4 44 -9 98 -11 120 -3 22 -7 67 -10 100 -5 58 -22
189 -31 250 -2 17 -6 44 -8 60 -17 120 -67 393 -86 465 -5 19 -11 46 -13 60
-19 109 -130 464 -197 630 -304 758 -799 1245 -1490 1468 -216 69 -314 92
-530 123 -41 6 -78 14 -82 17 -3 4 -9 36 -12 72 -3 36 -10 80 -15 98 -5 17 -8
32 -6 32 2 0 -4 24 -14 53 -40 116 -83 172 -153 201 -65 27 -99 21 -180 -34z"/>
</g>
</svg>
